<mxfile host="drawio-plugin" modified="2021-09-10T00:16:22.584Z" agent="5.0 (Windows NT 6.2; Win64; x64) AppleWebKit/537.36 (KHTML, like Gecko) Chrome/89.0.4389.114 Safari/537.36" version="14.7.4" etag="gySfSxDg74Btf6m4Q48t" type="embed"><diagram id="3E4O7sRhSfkeFbHuLnJs" name="Página-1"><mxGraphModel dx="3056" dy="718" grid="1" gridSize="10" guides="1" tooltips="1" connect="1" arrows="1" fold="1" page="1" pageScale="1" pageWidth="827" pageHeight="1169" math="0" shadow="0"><root><mxCell id="0"/><mxCell id="1" parent="0"/><mxCell id="22" value="" style="rounded=1;whiteSpace=wrap;html=1;dashed=1;" parent="1" vertex="1"><mxGeometry x="-690" y="100" width="560" height="580" as="geometry"/></mxCell><mxCell id="23" value="" style="group" parent="1" vertex="1" connectable="0"><mxGeometry x="30" y="100" width="560" height="580" as="geometry"/></mxCell><mxCell id="21" value="" style="rounded=1;whiteSpace=wrap;html=1;dashed=1;" parent="23" vertex="1"><mxGeometry width="560" height="580" as="geometry"/></mxCell><mxCell id="2" value="Usuario" style="swimlane;fontStyle=1;align=center;verticalAlign=top;childLayout=stackLayout;horizontal=1;startSize=26;horizontalStack=0;resizeParent=1;resizeParentMax=0;resizeLast=0;collapsible=1;marginBottom=0;" parent="23" vertex="1"><mxGeometry x="50" y="60" width="160" height="184" as="geometry"/></mxCell><mxCell id="3" value="- alias: String&#10;- nombre: String&#10;- apellidos: String&#10;- celular: String&#10;- email: String&#10;- password: String (hash)&#10;- fecha: Date" style="text;strokeColor=none;fillColor=none;align=left;verticalAlign=top;spacingLeft=4;spacingRight=4;overflow=hidden;rotatable=0;points=[[0,0.5],[1,0.5]];portConstraint=eastwest;" parent="2" vertex="1"><mxGeometry y="26" width="160" height="124" as="geometry"/></mxCell><mxCell id="4" value="" style="line;strokeWidth=1;fillColor=none;align=left;verticalAlign=middle;spacingTop=-1;spacingLeft=3;spacingRight=3;rotatable=0;labelPosition=right;points=[];portConstraint=eastwest;" parent="2" vertex="1"><mxGeometry y="150" width="160" height="8" as="geometry"/></mxCell><mxCell id="5" value="+ method(type): type" style="text;strokeColor=none;fillColor=none;align=left;verticalAlign=top;spacingLeft=4;spacingRight=4;overflow=hidden;rotatable=0;points=[[0,0.5],[1,0.5]];portConstraint=eastwest;" parent="2" vertex="1"><mxGeometry y="158" width="160" height="26" as="geometry"/></mxCell><mxCell id="20" style="edgeStyle=orthogonalEdgeStyle;rounded=0;orthogonalLoop=1;jettySize=auto;html=1;entryX=0.498;entryY=0.973;entryDx=0;entryDy=0;entryPerimeter=0;startArrow=none;startFill=0;endArrow=open;endFill=0;" parent="23" source="10" target="5" edge="1"><mxGeometry relative="1" as="geometry"/></mxCell><mxCell id="10" value="UsuarioDAO" style="swimlane;fontStyle=1;align=center;verticalAlign=top;childLayout=stackLayout;horizontal=1;startSize=26;horizontalStack=0;resizeParent=1;resizeParentMax=0;resizeLast=0;collapsible=1;marginBottom=0;" parent="23" vertex="1"><mxGeometry x="50" y="350" width="160" height="160" as="geometry"/></mxCell><mxCell id="11" value="- connect: Connection" style="text;strokeColor=none;fillColor=none;align=left;verticalAlign=top;spacingLeft=4;spacingRight=4;overflow=hidden;rotatable=0;points=[[0,0.5],[1,0.5]];portConstraint=eastwest;" parent="10" vertex="1"><mxGeometry y="26" width="160" height="34" as="geometry"/></mxCell><mxCell id="12" value="" style="line;strokeWidth=1;fillColor=none;align=left;verticalAlign=middle;spacingTop=-1;spacingLeft=3;spacingRight=3;rotatable=0;labelPosition=right;points=[];portConstraint=eastwest;" parent="10" vertex="1"><mxGeometry y="60" width="160" height="8" as="geometry"/></mxCell><mxCell id="13" value="+ getAll()&#10;+ getMuseum()&#10;+ insertMuseum()&#10;+ updateMuseum()&#10;+ deleteMuseum()" style="text;strokeColor=none;fillColor=none;align=left;verticalAlign=top;spacingLeft=4;spacingRight=4;overflow=hidden;rotatable=0;points=[[0,0.5],[1,0.5]];portConstraint=eastwest;" parent="10" vertex="1"><mxGeometry y="68" width="160" height="92" as="geometry"/></mxCell><mxCell id="19" style="edgeStyle=orthogonalEdgeStyle;rounded=0;orthogonalLoop=1;jettySize=auto;html=1;endArrow=none;endFill=0;startArrow=open;startFill=0;" parent="23" source="14" target="13" edge="1"><mxGeometry relative="1" as="geometry"/></mxCell><mxCell id="14" value="ConnectDB" style="swimlane;fontStyle=1;align=center;verticalAlign=top;childLayout=stackLayout;horizontal=1;startSize=26;horizontalStack=0;resizeParent=1;resizeParentMax=0;resizeLast=0;collapsible=1;marginBottom=0;" parent="23" vertex="1"><mxGeometry x="370" y="404" width="160" height="120" as="geometry"/></mxCell><mxCell id="15" value=" " style="text;strokeColor=none;fillColor=none;align=left;verticalAlign=top;spacingLeft=4;spacingRight=4;overflow=hidden;rotatable=0;points=[[0,0.5],[1,0.5]];portConstraint=eastwest;" parent="14" vertex="1"><mxGeometry y="26" width="160" height="34" as="geometry"/></mxCell><mxCell id="16" value="" style="line;strokeWidth=1;fillColor=none;align=left;verticalAlign=middle;spacingTop=-1;spacingLeft=3;spacingRight=3;rotatable=0;labelPosition=right;points=[];portConstraint=eastwest;" parent="14" vertex="1"><mxGeometry y="60" width="160" height="8" as="geometry"/></mxCell><mxCell id="17" value="+ getConnect()" style="text;strokeColor=none;fillColor=none;align=left;verticalAlign=top;spacingLeft=4;spacingRight=4;overflow=hidden;rotatable=0;points=[[0,0.5],[1,0.5]];portConstraint=eastwest;" parent="14" vertex="1"><mxGeometry y="68" width="160" height="52" as="geometry"/></mxCell><mxCell id="24" value="" style="rounded=1;whiteSpace=wrap;html=1;dashed=1;" parent="1" vertex="1"><mxGeometry x="-1420" y="90" width="590" height="550" as="geometry"/></mxCell><mxCell id="25" style="edgeStyle=orthogonalEdgeStyle;rounded=0;orthogonalLoop=1;jettySize=auto;html=1;startArrow=diamondThin;startFill=1;endArrow=none;endFill=0;entryX=1;entryY=0.526;entryDx=0;entryDy=0;entryPerimeter=0;jumpSize=10;endSize=8;startSize=12;" parent="1" source="10" target="27" edge="1"><mxGeometry relative="1" as="geometry"><mxPoint x="-160" y="530" as="targetPoint"/><Array as="points"><mxPoint x="-130" y="530"/><mxPoint x="-130" y="531"/></Array></mxGeometry></mxCell><mxCell id="26" value="IniciarDatos" style="swimlane;fontStyle=1;align=center;verticalAlign=top;childLayout=stackLayout;horizontal=1;startSize=26;horizontalStack=0;resizeParent=1;resizeParentMax=0;resizeLast=0;collapsible=1;marginBottom=0;" parent="1" vertex="1"><mxGeometry x="-350" y="450" width="200" height="130" as="geometry"/></mxCell><mxCell id="27" value="- usuarios: ArrayList&lt;Ususario&gt;" style="text;strokeColor=none;fillColor=none;align=left;verticalAlign=top;spacingLeft=4;spacingRight=4;overflow=hidden;rotatable=0;points=[[0,0.5],[1,0.5]];portConstraint=eastwest;" parent="26" vertex="1"><mxGeometry y="26" width="200" height="44" as="geometry"/></mxCell><mxCell id="28" value="" style="line;strokeWidth=1;fillColor=none;align=left;verticalAlign=middle;spacingTop=-1;spacingLeft=3;spacingRight=3;rotatable=0;labelPosition=right;points=[];portConstraint=eastwest;" parent="26" vertex="1"><mxGeometry y="70" width="200" height="8" as="geometry"/></mxCell><mxCell id="29" value="+ IniciarDatos() (Constructor(DAO))&#10;+ getters y setters" style="text;strokeColor=none;fillColor=none;align=left;verticalAlign=top;spacingLeft=4;spacingRight=4;overflow=hidden;rotatable=0;points=[[0,0.5],[1,0.5]];portConstraint=eastwest;" parent="26" vertex="1"><mxGeometry y="78" width="200" height="52" as="geometry"/></mxCell><mxCell id="42" style="edgeStyle=orthogonalEdgeStyle;rounded=0;jumpSize=10;orthogonalLoop=1;jettySize=auto;html=1;entryX=0.5;entryY=1;entryDx=0;entryDy=0;entryPerimeter=0;startArrow=none;startFill=0;endArrow=open;endFill=0;startSize=12;endSize=8;" parent="1" source="30" target="41" edge="1"><mxGeometry relative="1" as="geometry"/></mxCell><mxCell id="71" style="edgeStyle=orthogonalEdgeStyle;rounded=0;jumpSize=10;orthogonalLoop=1;jettySize=auto;html=1;startArrow=none;startFill=0;endArrow=open;endFill=0;startSize=12;endSize=8;entryX=0.5;entryY=0;entryDx=0;entryDy=0;" parent="1" source="30" target="72" edge="1"><mxGeometry relative="1" as="geometry"><mxPoint x="-1490" y="1016.6666666666666" as="targetPoint"/></mxGeometry></mxCell><mxCell id="30" value="mainWindows" style="swimlane;fontStyle=1;align=center;verticalAlign=top;childLayout=stackLayout;horizontal=1;startSize=26;horizontalStack=0;resizeParent=1;resizeParentMax=0;resizeLast=0;collapsible=1;marginBottom=0;" parent="1" vertex="1"><mxGeometry x="-1320" y="460" width="200" height="130" as="geometry"/></mxCell><mxCell id="31" value="- usuarios: ArrayList&lt;Ususario&gt;" style="text;strokeColor=none;fillColor=none;align=left;verticalAlign=top;spacingLeft=4;spacingRight=4;overflow=hidden;rotatable=0;points=[[0,0.5],[1,0.5]];portConstraint=eastwest;" parent="30" vertex="1"><mxGeometry y="26" width="200" height="44" as="geometry"/></mxCell><mxCell id="32" value="" style="line;strokeWidth=1;fillColor=none;align=left;verticalAlign=middle;spacingTop=-1;spacingLeft=3;spacingRight=3;rotatable=0;labelPosition=right;points=[];portConstraint=eastwest;" parent="30" vertex="1"><mxGeometry y="70" width="200" height="8" as="geometry"/></mxCell><mxCell id="33" value="+ IniciarDatos() (Constructor(DAO))&#10;+ getters y setters" style="text;strokeColor=none;fillColor=none;align=left;verticalAlign=top;spacingLeft=4;spacingRight=4;overflow=hidden;rotatable=0;points=[[0,0.5],[1,0.5]];portConstraint=eastwest;" parent="30" vertex="1"><mxGeometry y="78" width="200" height="52" as="geometry"/></mxCell><mxCell id="70" style="edgeStyle=orthogonalEdgeStyle;rounded=0;jumpSize=10;orthogonalLoop=1;jettySize=auto;html=1;startArrow=none;startFill=0;endArrow=open;endFill=0;startSize=12;endSize=8;" parent="1" source="38" target="43" edge="1"><mxGeometry relative="1" as="geometry"/></mxCell><mxCell id="38" value="Results" style="swimlane;fontStyle=1;align=center;verticalAlign=top;childLayout=stackLayout;horizontal=1;startSize=26;horizontalStack=0;resizeParent=1;resizeParentMax=0;resizeLast=0;collapsible=1;marginBottom=0;" parent="1" vertex="1"><mxGeometry x="-1320" y="190" width="200" height="130" as="geometry"/></mxCell><mxCell id="39" value=" " style="text;strokeColor=none;fillColor=none;align=left;verticalAlign=top;spacingLeft=4;spacingRight=4;overflow=hidden;rotatable=0;points=[[0,0.5],[1,0.5]];portConstraint=eastwest;" parent="38" vertex="1"><mxGeometry y="26" width="200" height="44" as="geometry"/></mxCell><mxCell id="40" value="" style="line;strokeWidth=1;fillColor=none;align=left;verticalAlign=middle;spacingTop=-1;spacingLeft=3;spacingRight=3;rotatable=0;labelPosition=right;points=[];portConstraint=eastwest;" parent="38" vertex="1"><mxGeometry y="70" width="200" height="8" as="geometry"/></mxCell><mxCell id="41" value="+ IniciarDatos() (Constructor(DAO))&#10;+ getters y setters" style="text;strokeColor=none;fillColor=none;align=left;verticalAlign=top;spacingLeft=4;spacingRight=4;overflow=hidden;rotatable=0;points=[[0,0.5],[1,0.5]];portConstraint=eastwest;" parent="38" vertex="1"><mxGeometry y="78" width="200" height="52" as="geometry"/></mxCell><mxCell id="47" style="edgeStyle=orthogonalEdgeStyle;rounded=0;jumpSize=10;orthogonalLoop=1;jettySize=auto;html=1;entryX=0.004;entryY=1.029;entryDx=0;entryDy=0;entryPerimeter=0;startArrow=none;startFill=0;endArrow=open;endFill=0;startSize=12;endSize=8;" parent="1" source="43" target="27" edge="1"><mxGeometry relative="1" as="geometry"/></mxCell><mxCell id="43" value="ControlsPanels" style="swimlane;fontStyle=1;align=center;verticalAlign=top;childLayout=stackLayout;horizontal=1;startSize=26;horizontalStack=0;resizeParent=1;resizeParentMax=0;resizeLast=0;collapsible=1;marginBottom=0;" parent="1" vertex="1"><mxGeometry x="-1080" y="455" width="200" height="130" as="geometry"/></mxCell><mxCell id="44" value="manda el requerimiento de info" style="text;strokeColor=none;fillColor=none;align=left;verticalAlign=top;spacingLeft=4;spacingRight=4;overflow=hidden;rotatable=0;points=[[0,0.5],[1,0.5]];portConstraint=eastwest;" parent="43" vertex="1"><mxGeometry y="26" width="200" height="44" as="geometry"/></mxCell><mxCell id="45" value="" style="line;strokeWidth=1;fillColor=none;align=left;verticalAlign=middle;spacingTop=-1;spacingLeft=3;spacingRight=3;rotatable=0;labelPosition=right;points=[];portConstraint=eastwest;" parent="43" vertex="1"><mxGeometry y="70" width="200" height="8" as="geometry"/></mxCell><mxCell id="46" value="+ IniciarDatos() (Constructor(DAO))&#10;+ getters y setters" style="text;strokeColor=none;fillColor=none;align=left;verticalAlign=top;spacingLeft=4;spacingRight=4;overflow=hidden;rotatable=0;points=[[0,0.5],[1,0.5]];portConstraint=eastwest;" parent="43" vertex="1"><mxGeometry y="78" width="200" height="52" as="geometry"/></mxCell><mxCell id="64" style="edgeStyle=orthogonalEdgeStyle;rounded=0;jumpSize=10;orthogonalLoop=1;jettySize=auto;html=1;entryX=0.75;entryY=0;entryDx=0;entryDy=0;startArrow=open;startFill=0;endArrow=none;endFill=0;startSize=12;endSize=8;" parent="1" source="52" target="43" edge="1"><mxGeometry relative="1" as="geometry"/></mxCell><mxCell id="52" value="CambioEvento" style="swimlane;fontStyle=1;align=center;verticalAlign=top;childLayout=stackLayout;horizontal=1;startSize=26;horizontalStack=0;resizeParent=1;resizeParentMax=0;resizeLast=0;collapsible=1;marginBottom=0;" parent="1" vertex="1"><mxGeometry x="-630" y="140" width="200" height="130" as="geometry"/></mxCell><mxCell id="53" value="- usuarios: ArrayList&lt;Ususario&gt;" style="text;strokeColor=none;fillColor=none;align=left;verticalAlign=top;spacingLeft=4;spacingRight=4;overflow=hidden;rotatable=0;points=[[0,0.5],[1,0.5]];portConstraint=eastwest;" parent="52" vertex="1"><mxGeometry y="26" width="200" height="44" as="geometry"/></mxCell><mxCell id="54" value="" style="line;strokeWidth=1;fillColor=none;align=left;verticalAlign=middle;spacingTop=-1;spacingLeft=3;spacingRight=3;rotatable=0;labelPosition=right;points=[];portConstraint=eastwest;" parent="52" vertex="1"><mxGeometry y="70" width="200" height="8" as="geometry"/></mxCell><mxCell id="55" value="+ IniciarDatos() (Constructor(DAO))&#10;+ getters y setters" style="text;strokeColor=none;fillColor=none;align=left;verticalAlign=top;spacingLeft=4;spacingRight=4;overflow=hidden;rotatable=0;points=[[0,0.5],[1,0.5]];portConstraint=eastwest;" parent="52" vertex="1"><mxGeometry y="78" width="200" height="52" as="geometry"/></mxCell><mxCell id="65" style="edgeStyle=orthogonalEdgeStyle;rounded=0;jumpSize=10;orthogonalLoop=1;jettySize=auto;html=1;entryX=0.919;entryY=0.004;entryDx=0;entryDy=0;entryPerimeter=0;startArrow=open;startFill=0;endArrow=none;endFill=0;startSize=12;endSize=8;" parent="1" source="60" target="43" edge="1"><mxGeometry relative="1" as="geometry"/></mxCell><mxCell id="60" value="clilckEventos" style="swimlane;fontStyle=1;align=center;verticalAlign=top;childLayout=stackLayout;horizontal=1;startSize=26;horizontalStack=0;resizeParent=1;resizeParentMax=0;resizeLast=0;collapsible=1;marginBottom=0;" parent="1" vertex="1"><mxGeometry x="-630" y="325" width="200" height="130" as="geometry"/></mxCell><mxCell id="61" value="- usuarios: ArrayList&lt;Ususario&gt;" style="text;strokeColor=none;fillColor=none;align=left;verticalAlign=top;spacingLeft=4;spacingRight=4;overflow=hidden;rotatable=0;points=[[0,0.5],[1,0.5]];portConstraint=eastwest;" parent="60" vertex="1"><mxGeometry y="26" width="200" height="44" as="geometry"/></mxCell><mxCell id="62" value="" style="line;strokeWidth=1;fillColor=none;align=left;verticalAlign=middle;spacingTop=-1;spacingLeft=3;spacingRight=3;rotatable=0;labelPosition=right;points=[];portConstraint=eastwest;" parent="60" vertex="1"><mxGeometry y="70" width="200" height="8" as="geometry"/></mxCell><mxCell id="63" value="+ IniciarDatos() (Constructor(DAO))&#10;+ getters y setters" style="text;strokeColor=none;fillColor=none;align=left;verticalAlign=top;spacingLeft=4;spacingRight=4;overflow=hidden;rotatable=0;points=[[0,0.5],[1,0.5]];portConstraint=eastwest;" parent="60" vertex="1"><mxGeometry y="78" width="200" height="52" as="geometry"/></mxCell><mxCell id="72" value="CLIENTE" style="rounded=1;whiteSpace=wrap;html=1;" parent="1" vertex="1"><mxGeometry x="-1280" y="720" width="120" height="60" as="geometry"/></mxCell></root></mxGraphModel></diagram></mxfile>